<svg version="1.1"
     baseProfile="full"
     xmlns="http://www.w3.org/2000/svg"
>
     <symbol viewBox="0 0 12 12" id="default-checkbox">
          <rect x="0.5" y="0.5" width="11" height="11" rx="1.5" fill="white" stroke="#B9B9B9"/>
     </symbol>
     <symbol viewBox="0 0 12 12" id="active-checkbox">
          <rect x="0.5" y="0.5" width="11" height="11" rx="1.5" fill="#55BB06" stroke="#55BB06"/>
               <g clip-path="url(#clip0_6_15)">
                    <path fill-rule="evenodd" clip-rule="evenodd" d="M9.95452 4.1527L5.24992 9.44537L2 6.19545L3.41421 4.78123L5.16429 6.53131L8.4597 2.82397L9.95452 4.1527Z" fill="white"/>
               </g>
          <defs>
               <clipPath id="clip0_6_15">
                    <rect width="8" height="8" fill="white" transform="translate(2 2)"/>
               </clipPath>
          </defs>
     </symbol>
     <symbol viewBox="0 0 12 12" id="hover-checkbox">
     <rect x="0.5" y="0.5" width="11" height="11" rx="1.5" fill="white" stroke="#B9B9B9"/>
          <g clip-path="url(#clip0_6_10)">
               <path fill-rule="evenodd" clip-rule="evenodd" d="M9.95452 4.1527L5.24992 9.44537L2 6.19545L3.41421 4.78123L5.16429 6.53131L8.4597 2.82397L9.95452 4.1527Z" fill="#B9B9B9"/>
          </g>
          <defs>
               <clipPath id="clip0_6_10">
                    <rect width="8" height="8" fill="white" transform="translate(2 2)"/>
               </clipPath>
          </defs>
     </symbol>
     <symbol viewBox="0 0 12 12" id="indeterminate-checkbox">
          <rect x="0.5" y="0.5" width="11" height="11" rx="1.5" fill="#55BB06" stroke="#55BB06"/>
          <path d="M3 6H9" stroke="white" stroke-width="2"/>
     </symbol>
     <symbol viewBox="0 0 24 24" id="icon-close">
          <circle cx="12" cy="12" r="6" fill="#E1E1E1"/>
          <g opacity="0.8">
               <path fill-rule="evenodd" clip-rule="evenodd" d="M15 14.4L12 11.4L11.4002 12L9 14.4L9.60056 15L12 12.6L14.3995 15L15 14.4Z" fill="#707276"/>
               <path fill-rule="evenodd" clip-rule="evenodd" d="M15 9.6L12 12.6L11.4002 12L9 9.6L9.60056 9L12 11.4L14.3995 9L15 9.6Z" fill="#707276"/>
          </g>
     </symbol>
     <symbol viewBox="0 0 24 24" id="icon-search">
          <circle cx="11.1429" cy="11.1429" r="4.64286" stroke="#707276"/>
          <path d="M14.5 14.5L18 18" stroke="#707276"/>
     </symbol>
     <symbol viewBox="0 0 20 20" id="icon-close-hover">
          <path fill-rule="evenodd" clip-rule="evenodd" d="M10.6464 8.64648L13.2929 6.00004L10.6464 3.35359L11.3535 2.64648L14 5.29293L16.6464 2.64648L17.3535 3.35359L14.7071 6.00004L17.3535 8.64648L16.6464 9.35359L14 6.70714L11.3535 9.35359L10.6464 8.64648ZM2.91465 6.00003H8C8 6.34074 8.0284 6.67482 8.08296 7.00003H2.91465C2.70873 7.58263 2.15311 8.00003 1.5 8.00003C0.671573 8.00003 0 7.32846 0 6.50003C0 5.6716 0.671573 5.00003 1.5 5.00003C2.15311 5.00003 2.70873 5.41743 2.91465 6.00003ZM7.91465 10H9.52779C9.86799 10.3801 10.2559 10.7166 10.6822 11H7.91465C7.70873 11.5826 7.15311 12 6.5 12C5.84689 12 5.29127 11.5826 5.08535 11H0.5C0.223858 11 0 10.7762 0 10.5C0 10.2239 0.223858 10 0.5 10H5.08535C5.29127 9.41743 5.84689 9.00003 6.5 9.00003C7.15311 9.00003 7.70873 9.41743 7.91465 10ZM2.91465 14C2.70873 13.4174 2.15311 13 1.5 13C0.671573 13 0 13.6716 0 14.5C0 15.3285 0.671573 16 1.5 16C2.15311 16 2.70873 15.5826 2.91465 15H14.5C14.7761 15 15 14.7762 15 14.5C15 14.2239 14.7761 14 14.5 14H2.91465Z" fill="#7284E4"/>
     </symbol>
     <symbol viewBox="0 0 20 20" id="icon-close-filter">
          <path fill-rule="evenodd" clip-rule="evenodd" d="M10.6464 8.64648L13.2929 6.00004L10.6464 3.35359L11.3535 2.64648L14 5.29293L16.6464 2.64648L17.3535 3.35359L14.7071 6.00004L17.3535 8.64648L16.6464 9.35359L14 6.70714L11.3535 9.35359L10.6464 8.64648ZM2.91465 6.00003H8C8 6.34074 8.0284 6.67482 8.08296 7.00003H2.91465C2.70873 7.58263 2.15311 8.00003 1.5 8.00003C0.671573 8.00003 0 7.32846 0 6.50003C0 5.6716 0.671573 5.00003 1.5 5.00003C2.15311 5.00003 2.70873 5.41743 2.91465 6.00003ZM7.91465 10H9.52779C9.86799 10.3801 10.2559 10.7166 10.6822 11H7.91465C7.70873 11.5826 7.15311 12 6.5 12C5.84689 12 5.29127 11.5826 5.08535 11H0.5C0.223858 11 0 10.7762 0 10.5C0 10.2239 0.223858 10 0.5 10H5.08535C5.29127 9.41743 5.84689 9.00003 6.5 9.00003C7.15311 9.00003 7.70873 9.41743 7.91465 10ZM2.91465 14C2.70873 13.4174 2.15311 13 1.5 13C0.671573 13 0 13.6716 0 14.5C0 15.3285 0.671573 16 1.5 16C2.15311 16 2.70873 15.5826 2.91465 15H14.5C14.7761 15 15 14.7762 15 14.5C15 14.2239 14.7761 14 14.5 14H2.91465Z" fill="#B9B9B9"/>
     </symbol>
     <symbol viewBox="0 0 20 20" id="non-refundeble">
          <path fill-rule="evenodd" clip-rule="evenodd" d="M4.62478 4.63241L2.18383 5.00007L2 3.7796L5.66142 3.22811L6.21291 6.88952L4.99244 7.07335L4.62478 4.63241Z" fill="#707276"/>
          <path fill-rule="evenodd" clip-rule="evenodd" d="M5.50024 3.53113C3.45478 4.96004 2.1168 7.33195 2.1168 10.0164C2.1168 14.3824 5.65618 17.9218 10.0222 17.9218C14.3883 17.9218 17.9277 14.3824 17.9277 10.0164C17.9277 5.66294 14.4087 2.13141 10.0601 2.11102L10.035 3.11095C13.8429 3.11786 16.9277 6.20687 16.9277 10.0164C16.9277 13.8301 13.836 16.9218 10.0222 16.9218C6.20847 16.9218 3.1168 13.8301 3.1168 10.0164C3.1168 7.82668 4.13598 5.87504 5.72584 4.60992L5.50024 4.61573V3.99861V3.53113Z" fill="#707276"/>
          <path d="M1.64918 16.7664L1.2933 17.1176L1.64451 17.4735L2.51148 18.3519L2.86269 18.7078L3.21857 18.3566L18.2986 3.47416L18.6545 3.12295L18.3032 2.76707L17.4363 1.8886L17.0851 1.53272L16.7292 1.88393L1.64918 16.7664Z" fill="#707276" stroke="white"/>
     </symbol>

</svg>