<svg version="1.1"
     baseProfile="full"
     xmlns="http://www.w3.org/2000/svg"
>
     <symbol viewBox="0 0 12 12" id="default-checkbox">
          <rect x="0.5" y="0.5" width="11" height="11" rx="1.5" fill="white" stroke="#B9B9B9"/>
     </symbol>
     <symbol viewBox="0 0 12 12" id="active-checkbox">
          <rect x="0.5" y="0.5" width="11" height="11" rx="1.5" fill="#55BB06" stroke="#55BB06"/>
               <g clip-path="url(#clip0_6_15)">
                    <path fill-rule="evenodd" clip-rule="evenodd" d="M9.95452 4.1527L5.24992 9.44537L2 6.19545L3.41421 4.78123L5.16429 6.53131L8.4597 2.82397L9.95452 4.1527Z" fill="white"/>
               </g>
          <defs>
               <clipPath id="clip0_6_15">
                    <rect width="8" height="8" fill="white" transform="translate(2 2)"/>
               </clipPath>
          </defs>
     </symbol>
     <symbol viewBox="0 0 12 12" id="hover-checkbox">
     <rect x="0.5" y="0.5" width="11" height="11" rx="1.5" fill="white" stroke="#B9B9B9"/>
          <g clip-path="url(#clip0_6_10)">
               <path fill-rule="evenodd" clip-rule="evenodd" d="M9.95452 4.1527L5.24992 9.44537L2 6.19545L3.41421 4.78123L5.16429 6.53131L8.4597 2.82397L9.95452 4.1527Z" fill="#B9B9B9"/>
          </g>
          <defs>
               <clipPath id="clip0_6_10">
                    <rect width="8" height="8" fill="white" transform="translate(2 2)"/>
               </clipPath>
          </defs>
     </symbol>
     <symbol viewBox="0 0 12 12" id="indeterminate-checkbox">
          <rect x="0.5" y="0.5" width="11" height="11" rx="1.5" fill="#55BB06" stroke="#55BB06"/>
          <path d="M3 6H9" stroke="white" stroke-width="2"/>
     </symbol>
     <symbol viewBox="0 0 24 24" id="icon-close">
          <circle cx="12" cy="12" r="6" fill="#E1E1E1"/>
          <g opacity="0.8">
               <path fill-rule="evenodd" clip-rule="evenodd" d="M15 14.4L12 11.4L11.4002 12L9 14.4L9.60056 15L12 12.6L14.3995 15L15 14.4Z" fill="#707276"/>
               <path fill-rule="evenodd" clip-rule="evenodd" d="M15 9.6L12 12.6L11.4002 12L9 9.6L9.60056 9L12 11.4L14.3995 9L15 9.6Z" fill="#707276"/>
          </g>
     </symbol>
     <symbol viewBox="0 0 24 24" id="icon-search">
          <circle cx="11.1429" cy="11.1429" r="4.64286" stroke="#707276"/>
          <path d="M14.5 14.5L18 18" stroke="#707276"/>
     </symbol>
     <symbol viewBox="0 0 20 20" id="icon-close-hover">
          <path fill-rule="evenodd" clip-rule="evenodd" d="M10.6464 8.64648L13.2929 6.00004L10.6464 3.35359L11.3535 2.64648L14 5.29293L16.6464 2.64648L17.3535 3.35359L14.7071 6.00004L17.3535 8.64648L16.6464 9.35359L14 6.70714L11.3535 9.35359L10.6464 8.64648ZM2.91465 6.00003H8C8 6.34074 8.0284 6.67482 8.08296 7.00003H2.91465C2.70873 7.58263 2.15311 8.00003 1.5 8.00003C0.671573 8.00003 0 7.32846 0 6.50003C0 5.6716 0.671573 5.00003 1.5 5.00003C2.15311 5.00003 2.70873 5.41743 2.91465 6.00003ZM7.91465 10H9.52779C9.86799 10.3801 10.2559 10.7166 10.6822 11H7.91465C7.70873 11.5826 7.15311 12 6.5 12C5.84689 12 5.29127 11.5826 5.08535 11H0.5C0.223858 11 0 10.7762 0 10.5C0 10.2239 0.223858 10 0.5 10H5.08535C5.29127 9.41743 5.84689 9.00003 6.5 9.00003C7.15311 9.00003 7.70873 9.41743 7.91465 10ZM2.91465 14C2.70873 13.4174 2.15311 13 1.5 13C0.671573 13 0 13.6716 0 14.5C0 15.3285 0.671573 16 1.5 16C2.15311 16 2.70873 15.5826 2.91465 15H14.5C14.7761 15 15 14.7762 15 14.5C15 14.2239 14.7761 14 14.5 14H2.91465Z" fill="#7284E4"/>
     </symbol>
     <symbol viewBox="0 0 20 20" id="icon-close-filter">
          <path fill-rule="evenodd" clip-rule="evenodd" d="M10.6464 8.64648L13.2929 6.00004L10.6464 3.35359L11.3535 2.64648L14 5.29293L16.6464 2.64648L17.3535 3.35359L14.7071 6.00004L17.3535 8.64648L16.6464 9.35359L14 6.70714L11.3535 9.35359L10.6464 8.64648ZM2.91465 6.00003H8C8 6.34074 8.0284 6.67482 8.08296 7.00003H2.91465C2.70873 7.58263 2.15311 8.00003 1.5 8.00003C0.671573 8.00003 0 7.32846 0 6.50003C0 5.6716 0.671573 5.00003 1.5 5.00003C2.15311 5.00003 2.70873 5.41743 2.91465 6.00003ZM7.91465 10H9.52779C9.86799 10.3801 10.2559 10.7166 10.6822 11H7.91465C7.70873 11.5826 7.15311 12 6.5 12C5.84689 12 5.29127 11.5826 5.08535 11H0.5C0.223858 11 0 10.7762 0 10.5C0 10.2239 0.223858 10 0.5 10H5.08535C5.29127 9.41743 5.84689 9.00003 6.5 9.00003C7.15311 9.00003 7.70873 9.41743 7.91465 10ZM2.91465 14C2.70873 13.4174 2.15311 13 1.5 13C0.671573 13 0 13.6716 0 14.5C0 15.3285 0.671573 16 1.5 16C2.15311 16 2.70873 15.5826 2.91465 15H14.5C14.7761 15 15 14.7762 15 14.5C15 14.2239 14.7761 14 14.5 14H2.91465Z" fill="#B9B9B9"/>
     </symbol>
     <symbol viewBox="0 0 20 20" id="non-refundeble">
          <path fill-rule="evenodd" clip-rule="evenodd" d="M4.62478 4.63241L2.18383 5.00007L2 3.7796L5.66142 3.22811L6.21291 6.88952L4.99244 7.07335L4.62478 4.63241Z" fill="#707276"/>
          <path fill-rule="evenodd" clip-rule="evenodd" d="M5.50024 3.53113C3.45478 4.96004 2.1168 7.33195 2.1168 10.0164C2.1168 14.3824 5.65618 17.9218 10.0222 17.9218C14.3883 17.9218 17.9277 14.3824 17.9277 10.0164C17.9277 5.66294 14.4087 2.13141 10.0601 2.11102L10.035 3.11095C13.8429 3.11786 16.9277 6.20687 16.9277 10.0164C16.9277 13.8301 13.836 16.9218 10.0222 16.9218C6.20847 16.9218 3.1168 13.8301 3.1168 10.0164C3.1168 7.82668 4.13598 5.87504 5.72584 4.60992L5.50024 4.61573V3.99861V3.53113Z" fill="#707276"/>
          <path d="M1.64918 16.7664L1.2933 17.1176L1.64451 17.4735L2.51148 18.3519L2.86269 18.7078L3.21857 18.3566L18.2986 3.47416L18.6545 3.12295L18.3032 2.76707L17.4363 1.8886L17.0851 1.53272L16.7292 1.88393L1.64918 16.7664Z" fill="#707276" stroke="white"/>
     </symbol>
     <symbol viewBox="0 0 20 20" id="itinerarie-logo">
          <path d="M0 10.0008L15.2091 0C15.1513 1.66075 14.7483 3.08493 13.4134 4.0675L13.5615 4.17002C14.3024 4.67786 14.8609 5.34027 15.0995 6.26291C15.1981 6.65419 15.2173 7.06335 15.1558 7.46313C14.9647 8.84473 13.4237 9.7169 12.2621 9.08288C11.9801 8.94455 11.7422 8.72165 11.5775 8.44151C11.4127 8.16137 11.3283 7.83615 11.3346 7.50572C11.3319 7.4221 11.3454 7.33879 11.3743 7.26095C11.4031 7.18312 11.4466 7.11243 11.5022 7.05327C11.5578 6.99411 11.6242 6.94774 11.6973 6.91705C11.7705 6.88636 11.8487 6.87199 11.9273 6.87485C12.0845 6.87485 12.2352 6.94132 12.3464 7.05963C12.4575 7.17794 12.5199 7.3384 12.5199 7.50572C12.5199 7.54357 12.5199 7.58142 12.5199 7.61927C12.5065 7.74623 12.5324 7.87439 12.5936 7.98427C12.6549 8.09415 12.7481 8.17975 12.8592 8.22806C12.9723 8.27856 13.0972 8.29051 13.2169 8.26226C13.3366 8.23401 13.4451 8.16696 13.5275 8.07034C13.6834 7.90384 13.7994 7.69984 13.8657 7.47557C13.9319 7.2513 13.9465 7.01334 13.9082 6.7818C13.7986 5.86705 13.2845 5.3245 12.3658 5.17467C11.5213 5.03588 10.7775 5.27561 10.2026 5.97745C9.87992 6.36825 9.69356 6.86549 9.67494 7.38544C9.65631 7.90539 9.80657 8.41629 10.1004 8.83211C10.1167 8.85735 10.133 8.88258 10.176 8.94409L9.25586 8.83211C8.27501 8.71698 7.42158 8.95355 6.79336 9.83203C6.77365 9.85259 6.75799 9.87713 6.7473 9.90421C6.73661 9.93129 6.7311 9.96037 6.7311 9.98975C6.7311 10.0191 6.73661 10.0482 6.7473 10.0753C6.75799 10.1024 6.77365 10.1269 6.79336 10.1475C7.42158 11.0244 8.27501 11.2673 9.25438 11.1521L10.1582 11.0464C10.1435 11.0833 10.1267 11.1191 10.1078 11.1537C9.89089 11.4673 9.75175 11.8341 9.70326 12.2202C9.65476 12.6062 9.69847 12.999 9.83036 13.3623C9.96224 13.7256 10.178 14.0477 10.4578 14.2987C10.7375 14.5497 11.0722 14.7216 11.4309 14.7985C11.9671 14.9305 12.5295 14.8637 13.0252 14.6093C13.4145 14.3961 13.71 14.0292 13.8485 13.5871C13.9869 13.145 13.9573 12.6627 13.766 12.2435C13.6371 11.9722 13.4578 11.7577 13.157 11.7231C13.0834 11.7111 13.0083 11.7156 12.9364 11.7363C12.8645 11.757 12.7975 11.7935 12.7396 11.8434C12.6817 11.8932 12.6342 11.9554 12.6002 12.026C12.5662 12.0965 12.5465 12.1738 12.5422 12.253C12.5333 12.335 12.5422 12.4107 12.5422 12.499C12.541 12.5828 12.5242 12.6655 12.4927 12.7423C12.4612 12.8191 12.4156 12.8885 12.3587 12.9464C12.3017 13.0042 12.2345 13.0494 12.1609 13.0793C12.0873 13.1092 12.0089 13.1231 11.9302 13.1204C11.7749 13.1175 11.6268 13.0498 11.5179 12.9318C11.4089 12.8138 11.3479 12.655 11.348 12.4896C11.3503 12.1287 11.4557 11.7772 11.6502 11.4816C11.8447 11.1861 12.1191 10.9606 12.437 10.8351C13.6223 10.362 14.9795 11.2499 15.1647 12.57C15.3632 13.9894 14.532 15.1897 13.5675 15.8268C13.5215 15.8568 13.4756 15.8836 13.4089 15.9246C14.7424 16.904 15.1528 18.3329 15.2091 20L0 10.0008Z" fill="#906F45"/>
     </symbol>


</svg>