<?xml version="1.0" standalone="no"?>
<!DOCTYPE svg PUBLIC "-//W3C//DTD SVG 20010904//EN"
 "http://www.w3.org/TR/2001/REC-SVG-20010904/DTD/svg10.dtd">
<svg version="1.0" xmlns="http://www.w3.org/2000/svg"
 width="391.000000pt" height="391.000000pt" viewBox="0 0 391.000000 391.000000"
 preserveAspectRatio="xMidYMid meet">
<metadata>
Created by potrace 1.14, written by Peter Selinger 2001-2017
</metadata>
<g transform="translate(0.000000,391.000000) scale(0.100000,-0.100000)"
fill="#000000" stroke="none">
<path d="M3347 2353 c4 -10 19 -42 33 -73 42 -86 78 -181 84 -222 l6 -38 -38
-1 c-20 0 -46 -2 -57 -4 -11 -1 -52 -6 -90 -9 l-71 -6 -34 42 c-19 22 -37 44
-40 49 -5 7 -27 12 -47 10 -8 -1 -6 -19 7 -61 17 -56 17 -61 2 -69 -16 -9 -16
-10 0 -16 15 -6 15 -11 -2 -71 l-19 -64 23 0 c16 0 39 18 71 55 25 30 50 53
54 51 4 -3 47 -8 97 -12 154 -11 139 -6 136 -50 -2 -21 -26 -91 -53 -154 -28
-63 -53 -125 -56 -137 -5 -20 -2 -21 23 -17 39 7 40 8 176 185 109 142 125
159 152 160 111 4 198 29 204 60 6 30 -94 61 -207 63 -25 0 -30 6 -162 176
-123 159 -134 170 -168 170 -25 0 -29 -3 -24 -17z"/>
<path d="M828 2289 c-10 -5 -18 -21 -18 -34 0 -22 4 -25 36 -25 34 0 35 1 32
32 -3 35 -21 45 -50 27z"/>
<path d="M2110 2279 c0 -24 17 -35 60 -38 19 -1 20 -8 20 -221 0 -169 -3 -220
-12 -221 -7 -1 -25 -1 -40 0 -24 1 -28 -3 -28 -27 l0 -29 105 1 105 0 0 28 c0
22 -4 29 -17 27 -61 -6 -63 -4 -62 73 1 118 33 114 108 -12 60 -102 67 -109
114 -117 26 -4 36 -1 41 12 8 21 -8 43 -36 47 -13 2 -39 34 -74 91 -30 49 -54
90 -54 93 0 2 22 27 50 56 27 29 50 56 50 61 0 4 15 7 33 7 34 0 35 3 28 50
-1 3 -41 6 -91 6 -87 0 -90 -1 -90 -23 0 -17 8 -24 30 -30 l30 -8 -49 -52
c-37 -39 -54 -50 -70 -46 -19 5 -21 12 -20 112 0 58 0 122 0 142 l-1 36 -65 0
c-56 0 -65 -3 -65 -18z"/>
<path d="M1388 2218 l-3 -53 -37 1 c-29 1 -38 -2 -38 -15 0 -25 20 -41 51 -41
l27 0 4 -139 c3 -158 12 -180 82 -214 51 -26 86 -17 86 22 0 24 -3 28 -20 24
-36 -10 -71 6 -84 38 -8 19 -13 78 -14 150 l-1 119 48 0 c38 0 52 5 71 25 26
28 28 27 -55 29 -66 1 -61 -5 -64 79 -1 22 -6 27 -25 27 -23 0 -25 -4 -28 -52z"/>
<path d="M117 2159 c-21 -5 -51 -16 -67 -24 -26 -13 -29 -19 -20 -35 13 -24
26 -25 76 -4 48 20 119 14 139 -12 8 -11 15 -32 15 -49 0 -30 -1 -30 -52 -30
-62 1 -140 -24 -173 -55 -66 -62 -26 -195 64 -215 47 -10 106 3 131 30 l21 23
24 -24 c18 -18 34 -24 64 -22 38 1 41 3 41 31 0 19 -4 28 -12 24 -7 -2 -22 -1
-33 3 -17 6 -19 18 -20 141 -2 150 -13 188 -62 207 -42 16 -93 21 -136 11z
m143 -232 c0 -33 -39 -104 -66 -122 -54 -35 -114 -23 -135 27 -23 57 23 102
120 117 60 9 81 3 81 -22z"/>
<path d="M320 2160 c1 -17 42 -50 63 -50 21 0 28 -9 51 -77 70 -200 100 -279
110 -285 17 -12 46 -9 51 5 7 23 106 302 117 330 10 26 14 28 62 25 l51 -3 0
-152 c1 -147 -1 -159 -29 -154 -14 3 -36 -21 -36 -39 0 -16 11 -17 98 -16 97
1 97 1 97 26 0 22 -4 25 -35 25 l-35 0 -5 185 -5 185 -135 0 -135 0 0 -25 c0
-21 5 -26 31 -28 l31 -3 -39 -107 c-22 -59 -44 -123 -50 -142 l-11 -35 -15 35
c-8 19 -32 83 -53 143 l-38 107 24 0 c21 0 25 5 25 28 l0 28 -95 -1 c-52 0
-95 -2 -95 -5z"/>
<path d="M1099 2159 c-25 -4 -60 -14 -78 -23 -27 -14 -30 -20 -21 -36 12 -23
32 -25 63 -8 59 31 152 16 163 -27 12 -49 3 -58 -61 -61 -115 -6 -182 -49
-192 -123 -9 -69 27 -124 95 -146 37 -11 106 3 132 28 25 23 25 23 41 4 11
-14 30 -21 62 -23 46 -3 47 -2 47 27 0 26 -3 29 -25 25 -13 -3 -28 0 -31 6 -4
6 -8 70 -8 142 -2 109 -5 137 -21 163 -28 48 -83 65 -166 52z m115 -205 c20
-8 20 -33 0 -84 -25 -63 -90 -99 -142 -79 -32 12 -50 36 -47 63 1 12 3 27 4
33 2 20 50 46 110 59 31 7 57 13 58 13 1 1 8 -2 17 -5z"/>
<path d="M1713 2159 c-46 -9 -103 -35 -103 -48 0 -5 7 -14 15 -21 12 -10 23
-10 58 4 63 24 113 21 142 -9 23 -22 35 -74 18 -76 -5 0 -28 -1 -53 -3 -140
-9 -202 -55 -202 -151 0 -62 46 -110 115 -122 47 -7 79 2 116 33 22 19 31 22
31 11 0 -18 24 -29 72 -32 29 -2 39 1 43 16 7 22 -2 40 -18 38 -45 -5 -45 -5
-45 137 -1 113 -4 141 -19 167 -30 51 -90 71 -170 56z m133 -212 c13 -13 -21
-98 -51 -127 -62 -60 -155 -36 -155 39 0 16 10 37 23 49 35 33 162 60 183 39z"/>
<path d="M2544 2161 c-2 -2 -4 -31 -4 -63 0 -43 4 -60 15 -64 23 -9 43 13 40
46 l-3 30 94 0 c52 0 94 -3 94 -7 0 -5 -57 -75 -125 -157 -92 -109 -125 -155
-125 -175 l0 -27 170 0 170 -1 0 68 c0 59 -2 67 -17 64 -10 -2 -21 -4 -25 -4
-5 -1 -8 -17 -8 -36 0 -31 -3 -35 -27 -36 -42 -2 -176 1 -179 4 -1 1 14 21 34
43 41 46 57 65 122 144 25 30 57 68 73 85 20 21 27 39 25 60 l-3 30 -158 0
c-87 0 -160 -2 -163 -4z"/>
<path d="M2015 1800 c-4 -6 -8 -21 -11 -34 -4 -21 0 -24 31 -23 33 1 35 3 35
34 0 28 -3 33 -24 33 -14 0 -28 -5 -31 -10z"/>
</g>
</svg>
